<?xml version="1.0" standalone="no"?>
<!DOCTYPE svg PUBLIC "-//W3C//DTD SVG 20010904//EN"
 "http://www.w3.org/TR/2001/REC-SVG-20010904/DTD/svg10.dtd">
<svg version="1.0" xmlns="http://www.w3.org/2000/svg"
 width="393.000000pt" height="393.000000pt" viewBox="0 0 393.000000 393.000000"
 preserveAspectRatio="xMidYMid meet">
<metadata>
Created by potrace 1.11, written by Peter Selinger 2001-2013
</metadata>
<g transform="translate(0.000000,393.000000) scale(0.100000,-0.100000)"
fill="#000000" stroke="none">
<path d="M1794 3801 c-5 -4 -48 -15 -95 -24 -47 -9 -110 -24 -140 -33 -30 -9
-76 -23 -104 -31 -58 -17 -268 -120 -340 -166 -89 -57 -198 -148 -291 -243
-85 -86 -199 -227 -225 -277 -7 -12 -31 -52 -55 -88 -24 -37 -44 -73 -45 -80
0 -8 -9 -27 -19 -44 -22 -35 -50 -94 -50 -106 0 -19 -19 -17 -49 5 -50 37
-114 51 -164 36 -165 -49 -239 -280 -192 -605 16 -114 13 -104 72 -245 25 -58
59 -121 79 -142 19 -21 34 -42 34 -47 0 -17 134 -111 172 -122 20 -5 40 -14
43 -19 3 -5 10 -46 16 -92 16 -128 67 -313 115 -416 24 -51 44 -96 44 -99 0
-36 274 -333 307 -333 8 0 27 -8 41 -19 15 -10 56 -29 92 -41 36 -13 66 -24
67 -25 2 -1 -4 -35 -13 -76 -18 -82 -14 -248 6 -306 l12 -33 838 0 838 0 12
33 c25 69 24 266 -2 376 -2 9 15 21 47 33 161 59 290 161 400 315 42 60 141
260 150 305 3 18 15 64 27 101 11 38 28 116 37 174 l16 105 45 17 c103 39 206
143 261 261 16 36 36 76 43 90 78 145 89 525 20 661 -77 152 -197 196 -317
115 -43 -29 -36 -36 -107 109 -117 240 -296 462 -507 631 -51 41 -95 74 -99
74 -3 0 -27 15 -53 34 -25 18 -98 57 -161 86 -150 67 -148 67 -200 79 -25 6
-78 20 -118 31 -39 10 -107 24 -150 30 -104 14 -326 22 -338 11z m631 -1200
c347 -59 465 -113 555 -253 94 -144 51 -316 -107 -436 -50 -37 -158 -82 -198
-82 -24 0 -26 -18 -15 -117 12 -106 0 -303 -25 -440 -17 -93 -76 -223 -132
-292 -53 -65 -132 -137 -176 -161 -18 -9 -45 -24 -62 -33 -69 -36 -136 -56
-233 -68 -89 -11 -119 -11 -210 3 -68 9 -124 24 -153 39 -25 13 -63 33 -85 44
-21 11 -41 23 -44 26 -3 3 -27 25 -53 48 -87 75 -148 166 -198 295 -37 98 -62
379 -47 532 6 59 6 109 2 113 -5 4 -39 16 -76 26 -112 29 -214 110 -263 209
-21 41 -25 65 -25 134 0 103 20 149 97 229 88 90 232 142 523 187 224 35 213
34 495 31 226 -3 268 -6 430 -34z"/>
<path d="M1205 2291 c-117 -67 -148 -191 -73 -296 27 -39 46 -54 93 -73 80
-32 177 -28 250 10 88 45 184 96 195 103 11 7 -10 39 -62 96 -16 16 -28 35
-28 41 0 27 -57 92 -105 119 -44 26 -60 29 -135 29 -75 0 -91 -3 -135 -29z"/>
<path d="M2445 2301 c-50 -23 -93 -65 -115 -114 -9 -21 -24 -45 -33 -55 -31
-32 -67 -80 -67 -89 0 -4 23 -19 52 -33 29 -14 67 -35 86 -48 92 -62 213 -78
308 -40 49 20 66 34 97 79 36 51 38 57 35 116 -5 78 -42 135 -114 175 -42 24
-61 28 -129 28 -56 0 -92 -6 -120 -19z"/>
<path d="M1770 1402 c-35 -6 -45 -11 -45 -26 0 -13 10 -23 30 -29 70 -22 135
-120 135 -204 0 -18 5 -33 10 -33 6 0 10 33 10 79 0 63 4 83 20 104 35 44 81
66 148 70 54 3 95 18 81 31 -8 7 -344 14 -389 8z"/>
</g>
</svg>
